<svg width="179" height="197" viewBox="0 0 179 197" fill="none" xmlns="http://www.w3.org/2000/svg">
<g clip-path="url(#clip0_89_145)">
<path d="M15.9882 37.533L73.5177 4.28779C78.3795 1.47878 83.8942 0 89.5077 0C95.1213 0 100.636 1.47878 105.498 4.28779L163.012 37.533C167.873 40.3425 171.91 44.3834 174.716 49.2496C177.523 54.1158 179 59.6358 179 65.2548V131.745C179.001 137.364 177.523 142.884 174.717 147.751C171.91 152.617 167.873 156.658 163.012 159.467L105.49 192.712C100.628 195.521 95.1135 197 89.5 197C83.8865 197 78.3718 195.521 73.5099 192.712L15.9882 159.467C11.1268 156.658 7.08989 152.617 4.28333 147.751C1.47678 142.884 -0.000504887 137.364 1.29438e-07 131.745V65.2548C-0.000112664 59.6358 1.47734 54.1158 4.28385 49.2496C7.09037 44.3834 11.127 40.3425 15.9882 37.533Z" fill="url(#paint0_linear_89_145)"/>
<path d="M25.0153 47.108L77.6385 16.6981C81.3174 14.5706 85.4912 13.4504 89.7399 13.4504C93.9886 13.4504 98.1624 14.5706 101.841 16.6981L154.464 47.108C158.143 49.2353 161.197 52.2941 163.321 55.977C165.445 59.66 166.563 63.8376 166.564 68.0901V128.902C166.566 133.158 165.448 137.339 163.323 141.025C161.199 144.711 158.142 147.772 154.461 149.9L101.837 180.31C98.1585 182.437 93.9847 183.557 89.736 183.557C85.4873 183.557 81.3135 182.437 77.6346 180.31L25.0153 149.9C21.3359 147.773 18.2804 144.715 16.1559 141.032C14.0313 137.349 12.9126 133.171 12.912 128.918V68.1056C12.9099 63.85 14.0273 59.6688 16.152 55.9828C18.2767 52.2967 21.3337 49.2359 25.0153 47.108Z" fill="white"/>
<path d="M86.6425 96.9235L34.1161 125.552C33.5719 125.845 33.1173 126.28 32.8003 126.811C32.4834 127.342 32.316 127.949 32.316 128.567C32.316 129.186 32.4834 129.793 32.8003 130.323C33.1173 130.854 33.5719 131.289 34.1161 131.583L84.7581 159.196C86.321 160.046 88.0714 160.491 89.8502 160.491C91.6289 160.491 93.3794 160.046 94.9422 159.196L145.584 131.594C146.128 131.301 146.583 130.866 146.9 130.335C147.217 129.804 147.384 129.197 147.384 128.579C147.384 127.96 147.217 127.353 146.9 126.822C146.583 126.291 146.128 125.856 145.584 125.563L93.0579 96.9235C92.0734 96.3879 90.9707 96.1073 89.8502 96.1073C88.7297 96.1073 87.627 96.3879 86.6425 96.9235Z" fill="black"/>
<path d="M86.4142 79.0169L33.8878 107.657C33.3437 107.95 32.889 108.385 32.5721 108.916C32.2551 109.447 32.0878 110.054 32.0878 110.672C32.0878 111.291 32.2551 111.898 32.5721 112.428C32.889 112.959 33.3437 113.395 33.8878 113.688L84.5298 141.289C86.0927 142.139 87.8432 142.585 89.6219 142.585C91.4006 142.585 93.1511 142.139 94.714 141.289L145.356 113.688C145.9 113.395 146.355 112.959 146.672 112.428C146.989 111.898 147.156 111.291 147.156 110.672C147.156 110.054 146.989 109.447 146.672 108.916C146.355 108.385 145.9 107.95 145.356 107.657L92.8296 79.0169C91.8451 78.4813 90.7424 78.2007 89.6219 78.2007C88.5014 78.2007 87.3987 78.4813 86.4142 79.0169Z" fill="white"/>
<path d="M86.6425 66.8777L34.1161 95.502C33.571 95.7947 33.1154 96.2299 32.7978 96.7612C32.4802 97.2926 32.3124 97.9002 32.3124 98.5194C32.3124 99.1386 32.4802 99.7462 32.7978 100.278C33.1154 100.809 33.571 101.244 34.1161 101.537L84.7388 129.123C86.3102 129.977 88.0699 130.424 89.8579 130.424C91.646 130.424 93.4057 129.977 94.9771 129.123L145.592 101.537C146.137 101.244 146.593 100.809 146.91 100.278C147.228 99.7462 147.396 99.1386 147.396 98.5194C147.396 97.9002 147.228 97.2926 146.91 96.7612C146.593 96.2299 146.137 95.7947 145.592 95.502L93.0579 66.8777C92.074 66.3401 90.9711 66.0583 89.8502 66.0583C88.7293 66.0583 87.6263 66.3401 86.6425 66.8777Z" fill="black"/>
<path d="M86.4142 48.9827L33.8878 77.6109C33.3437 77.9039 32.889 78.339 32.5721 78.8699C32.2551 79.4008 32.0878 80.0078 32.0878 80.6263C32.0878 81.2448 32.2551 81.8517 32.5721 82.3827C32.889 82.9136 33.3437 83.3487 33.8878 83.6417L84.5028 111.228C86.0742 112.082 87.8339 112.529 89.6219 112.529C91.4099 112.529 93.1696 112.082 94.7411 111.228L145.356 83.6417C145.9 83.3487 146.355 82.9136 146.672 82.3827C146.989 81.8517 147.156 81.2448 147.156 80.6263C147.156 80.0078 146.989 79.4008 146.672 78.8699C146.355 78.339 145.9 77.9039 145.356 77.6109L92.8296 48.9827C91.8451 48.4471 90.7424 48.1665 89.6219 48.1665C88.5014 48.1665 87.3987 48.4471 86.4142 48.9827Z" fill="white"/>
<path d="M86.6425 37.3355L34.1161 65.9636C33.5719 66.2566 33.1173 66.6917 32.8003 67.2227C32.4834 67.7536 32.316 68.3605 32.316 68.979C32.316 69.5975 32.4834 70.2045 32.8003 70.7354C33.1173 71.2664 33.5719 71.7014 34.1161 71.9945L84.7117 99.5729C86.2888 100.431 88.0552 100.88 89.8502 100.88C91.6451 100.88 93.4116 100.431 94.9887 99.5729L145.584 71.9945C146.128 71.7014 146.583 71.2664 146.9 70.7354C147.217 70.2045 147.384 69.5975 147.384 68.979C147.384 68.3605 147.217 67.7536 146.9 67.2227C146.583 66.6917 146.128 66.2566 145.584 65.9636L93.0579 37.3355C92.0734 36.7998 90.9707 36.5193 89.8502 36.5193C88.7297 36.5193 87.627 36.7998 86.6425 37.3355Z" fill="black"/>
</g>
<defs>
<linearGradient id="paint0_linear_89_145" x1="174.713" y1="147.75" x2="4.19476" y2="49.4036" gradientUnits="userSpaceOnUse">
<stop stop-color="#0C589C"/>
<stop offset="0.14" stop-color="#156BAB"/>
<stop offset="0.43" stop-color="#2A9DD0"/>
<stop offset="0.5" stop-color="#30A9DA"/>
<stop offset="1" stop-color="#38C9D7"/>
</linearGradient>
<clipPath id="clip0_89_145">
<rect width="179" height="197" fill="white"/>
</clipPath>
</defs>
</svg>
